<svg width="607" height="607" viewBox="0 0 607 607" fill="none" xmlns="http://www.w3.org/2000/svg">
<mask id="path-1-inside-1_163_189" fill="white">
<path d="M429.214 0C414.291 56.6001 423.455 111.587 459.435 147.566C495.414 183.546 550.401 192.709 607.002 177.785C556.426 207.255 524.024 252.618 524.024 303.501C524.025 354.383 556.426 399.744 607 429.214C550.4 414.291 495.414 423.455 459.435 459.435C423.456 495.414 414.291 550.4 429.214 607C399.744 556.426 354.383 524.025 303.501 524.024C252.618 524.024 207.255 556.426 177.785 607.002C192.709 550.401 183.546 495.414 147.566 459.435C111.587 423.455 56.6004 414.291 0 429.215C50.5751 399.745 82.9766 354.383 82.9766 303.5C82.9763 252.617 50.5752 207.255 0 177.785C56.6006 192.709 111.588 183.546 147.567 147.566C183.547 111.587 192.71 56.6002 177.787 0C207.257 50.5749 252.618 82.9766 303.501 82.9766C354.383 82.9765 399.744 50.5746 429.214 0Z"/>
</mask>
<path d="M429.214 0C414.291 56.6001 423.455 111.587 459.435 147.566C495.414 183.546 550.401 192.709 607.002 177.785C556.426 207.255 524.024 252.618 524.024 303.501C524.025 354.383 556.426 399.744 607 429.214C550.4 414.291 495.414 423.455 459.435 459.435C423.456 495.414 414.291 550.4 429.214 607C399.744 556.426 354.383 524.025 303.501 524.024C252.618 524.024 207.255 556.426 177.785 607.002C192.709 550.401 183.546 495.414 147.566 459.435C111.587 423.455 56.6004 414.291 0 429.215C50.5751 399.745 82.9766 354.383 82.9766 303.5C82.9763 252.617 50.5752 207.255 0 177.785C56.6006 192.709 111.588 183.546 147.567 147.566C183.547 111.587 192.71 56.6002 177.787 0C207.257 50.5749 252.618 82.9766 303.501 82.9766C354.383 82.9765 399.744 50.5746 429.214 0Z" fill="url(#paint0_linear_163_189)"/>
<path d="M429.214 0L434.049 1.27474L424.894 -2.51733L429.214 0ZM459.435 147.566L455.899 151.102L455.899 151.102L459.435 147.566ZM607.002 177.785L609.519 182.105L605.727 172.95L607.002 177.785ZM524.024 303.501L519.024 303.501L519.024 303.501L524.024 303.501ZM607 429.214L605.725 434.049L609.517 424.894L607 429.214ZM459.435 459.435L455.899 455.899L455.899 455.899L459.435 459.435ZM429.214 607L424.894 609.517L434.049 605.725L429.214 607ZM303.501 524.024L303.501 519.024L303.501 519.024L303.501 524.024ZM177.785 607.002L172.95 605.727L182.105 609.519L177.785 607.002ZM147.566 459.435L151.102 455.899L151.102 455.899L147.566 459.435ZM0 429.215L-2.51731 424.895L1.27475 434.05L0 429.215ZM82.9766 303.5L87.9766 303.5L87.9766 303.5L82.9766 303.5ZM0 177.785L1.27476 172.95L-2.5173 182.105L0 177.785ZM147.567 147.566L151.103 151.102L151.103 151.102L147.567 147.566ZM177.787 0L182.107 -2.51732L172.952 1.27474L177.787 0ZM303.501 82.9766L303.501 87.9766L303.501 87.9766L303.501 82.9766ZM429.214 0L424.379 -1.27474C409.152 56.4794 418.296 113.499 455.899 151.102L459.435 147.566L462.97 144.031C428.614 109.675 419.43 56.7208 434.049 1.27474L429.214 0ZM459.435 147.566L455.899 151.102C493.502 188.705 550.522 197.848 608.277 182.62L607.002 177.785L605.727 172.95C550.281 187.57 497.326 178.387 462.97 144.031L459.435 147.566ZM607.002 177.785L604.485 173.465C552.878 203.536 519.024 250.322 519.024 303.501L524.024 303.501L529.024 303.501C529.024 254.914 559.975 210.974 609.519 182.105L607.002 177.785ZM524.024 303.501L519.024 303.501C519.025 356.679 552.878 403.463 604.483 433.534L607 429.214L609.517 424.894C559.975 396.025 529.025 352.087 529.024 303.501L524.024 303.501ZM607 429.214L608.275 424.379C550.521 409.152 493.502 418.296 455.899 455.899L459.435 459.435L462.97 462.97C497.326 428.615 550.279 419.43 605.725 434.049L607 429.214ZM459.435 459.435L455.899 455.899C418.296 493.502 409.152 550.521 424.379 608.275L429.214 607L434.049 605.725C419.43 550.28 428.615 497.326 462.97 462.97L459.435 459.435ZM429.214 607L433.534 604.483C403.463 552.877 356.679 519.025 303.501 519.024L303.501 524.024L303.501 529.024C352.087 529.025 396.025 559.974 424.894 609.517L429.214 607ZM303.501 524.024L303.501 519.024C250.322 519.024 203.536 552.878 173.465 604.485L177.785 607.002L182.105 609.519C210.974 559.975 254.914 529.024 303.501 529.024L303.501 524.024ZM177.785 607.002L182.62 608.277C197.848 550.522 188.705 493.502 151.102 455.899L147.566 459.435L144.031 462.97C178.387 497.326 187.57 550.28 172.95 605.727L177.785 607.002ZM147.566 459.435L151.102 455.899C113.499 418.296 56.4796 409.152 -1.27475 424.38L0 429.215L1.27475 434.05C56.7211 419.43 109.675 428.614 144.031 462.97L147.566 459.435ZM0 429.215L2.51731 433.535C54.1236 403.464 87.9766 356.679 87.9766 303.5L82.9766 303.5L77.9766 303.5C77.9766 352.087 47.0266 396.026 -2.51731 424.895L0 429.215ZM82.9766 303.5L87.9766 303.5C87.9763 250.321 54.1237 203.536 2.5173 173.465L0 177.785L-2.5173 182.105C47.0266 210.974 77.9763 254.913 77.9766 303.5L82.9766 303.5ZM0 177.785L-1.27476 182.62C56.4797 197.848 113.5 188.705 151.103 151.102L147.567 147.566L144.032 144.031C109.676 178.387 56.7214 187.57 1.27476 172.95L0 177.785ZM147.567 147.566L151.103 151.102C188.706 113.499 197.849 56.4794 182.622 -1.27474L177.787 0L172.952 1.27474C187.571 56.7209 178.387 109.675 144.032 144.031L147.567 147.566ZM177.787 0L173.467 2.51732C203.538 54.1233 250.322 87.9766 303.501 87.9766V82.9766V77.9766C254.914 77.9766 210.976 47.0264 182.107 -2.51732L177.787 0ZM303.501 82.9766L303.501 87.9766C356.679 87.9765 403.463 54.123 433.534 2.51733L429.214 0L424.894 -2.51733C396.025 47.0262 352.087 77.9765 303.501 77.9766L303.501 82.9766Z" fill="black" mask="url(#path-1-inside-1_163_189)"/>
<defs>
<linearGradient id="paint0_linear_163_189" x1="303.501" y1="0" x2="303.501" y2="607.002" gradientUnits="userSpaceOnUse">
<stop stop-color="#FFE74E"/>
<stop offset="1" stop-color="#FDAB3A"/>
</linearGradient>
</defs>
</svg>
