<svg width="970" height="792" viewBox="0 0 970 792" fill="none" xmlns="http://www.w3.org/2000/svg">
<path d="M134.503 239.547L150.108 198.958C161.718 205.437 176.364 218.025 171.542 233.451L121.129 394.729C43.0068 367.267 54.8209 247.049 85.4355 212.587L95.2745 244.655L117.138 201.228L134.503 239.547Z" fill="url(#paint0_linear_161_153)"/>
<path d="M134.503 239.547L132.229 240.61L134.679 246.016L136.83 240.421L134.503 239.547ZM150.108 198.958L151.344 196.766L148.828 195.362L147.781 198.085L150.108 198.958ZM171.542 233.451L169.161 232.732L169.161 232.732L171.542 233.451ZM121.129 394.729L120.275 397.093L122.726 397.955L123.51 395.448L121.129 394.729ZM85.4355 212.587L87.8216 211.82L86.5315 207.616L83.5827 210.935L85.4355 212.587ZM95.2745 244.655L92.8884 245.422L94.6986 251.322L97.4989 245.76L95.2745 244.655ZM117.138 201.228L119.412 200.165L117.271 195.44L114.913 200.123L117.138 201.228ZM134.503 239.547L136.83 240.421L152.435 199.832L150.108 198.958L147.781 198.085L132.176 238.674L134.503 239.547ZM150.108 198.958L148.872 201.151C154.516 204.3 160.769 208.871 165.001 214.393C169.205 219.879 171.25 226.051 169.161 232.732L171.542 233.451L173.922 234.171C176.656 225.425 173.789 217.59 168.973 211.306C164.185 205.058 157.31 200.095 151.344 196.766L150.108 198.958ZM171.542 233.451L169.161 232.732L118.749 394.009L121.129 394.729L123.51 395.448L173.922 234.171L171.542 233.451ZM121.129 394.729L121.983 392.364C84.2199 379.09 67.9397 343.351 64.9939 306.051C63.5239 287.438 65.4024 268.598 69.5294 252.309C73.6693 235.969 80.0114 222.43 87.2883 214.239L85.4355 212.587L83.5827 210.935C75.5522 219.975 68.9371 234.386 64.6929 251.138C60.4357 267.941 58.5031 287.333 60.0181 306.515C63.0422 344.806 79.9162 382.907 120.275 397.093L121.129 394.729ZM85.4355 212.587L83.0494 213.354L92.8884 245.422L95.2745 244.655L97.6606 243.888L87.8216 211.82L85.4355 212.587ZM95.2745 244.655L97.4989 245.76L119.362 202.332L117.138 201.228L114.913 200.123L93.05 243.551L95.2745 244.655ZM117.138 201.228L114.863 202.29L132.229 240.61L134.503 239.547L136.777 238.485L119.412 200.165L117.138 201.228Z" fill="#17390A"/>
<path d="M836.667 239.547L821.062 198.958C809.452 205.437 794.805 218.025 799.628 233.451L850.04 394.729C928.163 367.267 916.349 247.049 885.734 212.587L875.895 244.655L854.032 201.228L836.667 239.547Z" fill="url(#paint1_linear_161_153)"/>
<path d="M836.667 239.547L838.941 240.61L836.491 246.016L834.34 240.421L836.667 239.547ZM821.062 198.958L819.826 196.766L822.341 195.362L823.388 198.085L821.062 198.958ZM799.628 233.451L802.008 232.732L802.008 232.732L799.628 233.451ZM850.04 394.729L850.894 397.093L848.443 397.955L847.66 395.448L850.04 394.729ZM885.734 212.587L883.348 211.82L884.638 207.616L887.587 210.935L885.734 212.587ZM875.895 244.655L878.281 245.422L876.471 251.322L873.671 245.76L875.895 244.655ZM854.032 201.228L851.757 200.165L853.899 195.44L856.256 200.123L854.032 201.228ZM836.667 239.547L834.34 240.421L818.735 199.832L821.062 198.958L823.388 198.085L838.993 238.674L836.667 239.547ZM821.062 198.958L822.297 201.151C816.654 204.3 810.401 208.871 806.169 214.393C801.964 219.879 799.92 226.051 802.008 232.732L799.628 233.451L797.247 234.171C794.513 225.425 797.381 217.59 802.196 211.306C806.984 205.058 813.859 200.095 819.826 196.766L821.062 198.958ZM799.628 233.451L802.008 232.732L852.421 394.009L850.04 394.729L847.66 395.448L797.247 234.171L799.628 233.451ZM850.04 394.729L849.186 392.364C886.95 379.09 903.23 343.351 906.176 306.051C907.646 287.438 905.767 268.598 901.64 252.309C897.5 235.969 891.158 222.43 883.881 214.239L885.734 212.587L887.587 210.935C895.617 219.975 902.232 234.386 906.477 251.138C910.734 267.941 912.666 287.333 911.151 306.515C908.127 344.806 891.253 382.907 850.894 397.093L850.04 394.729ZM885.734 212.587L888.12 213.354L878.281 245.422L875.895 244.655L873.509 243.888L883.348 211.82L885.734 212.587ZM875.895 244.655L873.671 245.76L851.807 202.332L854.032 201.228L856.256 200.123L878.119 243.551L875.895 244.655ZM854.032 201.228L856.306 202.29L838.941 240.61L836.667 239.547L834.392 238.485L851.757 200.165L854.032 201.228Z" fill="#17390A"/>
<path d="M790.462 529.125C809.886 519.253 829.884 527.78 846.073 541.024C862.531 554.489 875.227 572.961 879.699 582.531C882.562 588.659 886.348 595.977 888.942 605.264L891.799 601.208C896.785 594.126 904.423 591.833 912.382 592.044C920.33 592.255 928.665 594.961 935.194 597.956L935.706 598.19L935.411 598.672L911.773 637.258L954.54 627.779L955.541 627.557L955.099 628.482L933.673 673.407L965.726 662.237L966.537 661.955L966.383 662.799C964.176 674.897 956.699 689.298 945.607 703.293C934.509 717.295 919.763 730.929 902.971 741.488C873.202 760.209 836.917 769.305 803.136 753.524C771.842 769.738 733.442 782.109 693.71 786.901C614.106 796.503 529.016 775.694 485.121 694.255L484.884 693.814L789.538 529.609L790.462 529.125Z" fill="url(#paint2_linear_161_153)"/>
<path d="M790.462 529.125L789.329 526.896L789.315 526.904L789.301 526.911L790.462 529.125ZM846.073 541.024L847.656 539.089L847.656 539.089L846.073 541.024ZM879.699 582.531L877.434 583.59L877.434 583.59L879.699 582.531ZM888.942 605.264L886.534 605.936L887.952 611.011L890.986 606.703L888.942 605.264ZM891.799 601.208L893.843 602.648L893.843 602.647L891.799 601.208ZM912.382 592.044L912.448 589.545L912.448 589.545L912.382 592.044ZM935.194 597.956L934.152 600.228L934.153 600.229L935.194 597.956ZM935.706 598.19L937.838 599.496L939.311 597.092L936.747 595.917L935.706 598.19ZM935.411 598.672L937.543 599.978L937.543 599.978L935.411 598.672ZM911.773 637.258L909.641 635.952L906.566 640.973L912.314 639.699L911.773 637.258ZM954.54 627.779L955.081 630.22L955.083 630.22L954.54 627.779ZM955.541 627.557L957.797 628.633L960.005 624.003L954.998 625.116L955.541 627.557ZM955.099 628.482L957.356 629.559L957.356 629.558L955.099 628.482ZM933.673 673.407L931.416 672.331L928.836 677.74L934.495 675.768L933.673 673.407ZM965.726 662.237L964.904 659.876L964.904 659.877L965.726 662.237ZM966.537 661.955L968.996 662.405L969.768 658.183L965.715 659.594L966.537 661.955ZM966.383 662.799L963.923 662.349L963.923 662.35L966.383 662.799ZM945.607 703.293L947.566 704.846L947.566 704.846L945.607 703.293ZM902.971 741.488L904.302 743.605L904.302 743.605L902.971 741.488ZM803.136 753.524L804.195 751.259L803.079 750.738L801.986 751.305L803.136 753.524ZM693.71 786.901L694.009 789.383L694.009 789.383L693.71 786.901ZM485.121 694.255L482.92 695.441L482.92 695.441L485.121 694.255ZM484.884 693.814L483.697 691.614L481.497 692.8L482.683 695L484.884 693.814ZM789.538 529.609L788.377 527.395L788.364 527.402L788.352 527.409L789.538 529.609ZM790.462 529.125L791.594 531.354C809.649 522.178 828.532 529.904 844.49 542.959L846.073 541.024L847.656 539.089C831.237 525.656 810.122 516.329 789.329 526.896L790.462 529.125ZM846.073 541.024L844.49 542.959C860.649 556.18 873.116 574.348 877.434 583.59L879.699 582.531L881.964 581.473C877.338 571.574 864.413 552.799 847.656 539.089L846.073 541.024ZM879.699 582.531L877.434 583.59C880.341 589.811 884.01 596.899 886.534 605.936L888.942 605.264L891.35 604.591C888.686 595.055 884.783 587.506 881.964 581.473L879.699 582.531ZM888.942 605.264L890.986 606.703L893.843 602.648L891.799 601.208L889.755 599.768L886.898 603.824L888.942 605.264ZM891.799 601.208L893.843 602.647C898.187 596.477 904.87 594.345 912.315 594.543L912.382 592.044L912.448 589.545C903.977 589.32 895.383 591.774 889.754 599.769L891.799 601.208ZM912.382 592.044L912.315 594.543C919.799 594.742 927.787 597.309 934.152 600.228L935.194 597.956L936.236 595.684C929.542 592.613 920.861 589.768 912.448 589.545L912.382 592.044ZM935.194 597.956L934.153 600.229L934.665 600.463L935.706 598.19L936.747 595.917L936.235 595.683L935.194 597.956ZM935.706 598.19L933.574 596.885L933.279 597.366L935.411 598.672L937.543 599.978L937.838 599.496L935.706 598.19ZM935.411 598.672L933.279 597.366L909.641 635.952L911.773 637.258L913.905 638.564L937.543 599.978L935.411 598.672ZM911.773 637.258L912.314 639.699L955.081 630.22L954.54 627.779L953.999 625.339L911.232 634.817L911.773 637.258ZM954.54 627.779L955.083 630.22L956.084 629.997L955.541 627.557L954.998 625.116L953.997 625.339L954.54 627.779ZM955.541 627.557L953.284 626.481L952.843 627.406L955.099 628.482L957.356 629.558L957.797 628.633L955.541 627.557ZM955.099 628.482L952.843 627.406L931.416 672.331L933.673 673.407L935.929 674.483L957.356 629.559L955.099 628.482ZM933.673 673.407L934.495 675.768L966.549 664.598L965.726 662.237L964.904 659.877L932.85 671.046L933.673 673.407ZM965.726 662.237L966.548 664.598L967.359 664.316L966.537 661.955L965.715 659.594L964.904 659.876L965.726 662.237ZM966.537 661.955L964.078 661.505L963.923 662.349L966.383 662.799L968.842 663.249L968.996 662.405L966.537 661.955ZM966.383 662.799L963.923 662.35C961.818 673.893 954.603 687.919 943.648 701.74L945.607 703.293L947.566 704.846C958.796 690.678 966.535 675.901 968.842 663.247L966.383 662.799ZM945.607 703.293L943.648 701.74C932.718 715.53 918.182 728.97 901.641 739.372L902.971 741.488L904.302 743.605C921.344 732.888 936.3 719.061 947.566 704.846L945.607 703.293ZM902.971 741.488L901.641 739.372C872.271 757.841 836.917 766.546 804.195 751.259L803.136 753.524L802.078 755.789C836.918 772.065 874.134 762.576 904.302 743.605L902.971 741.488ZM803.136 753.524L801.986 751.305C770.954 767.382 732.842 779.663 693.41 784.419L693.71 786.901L694.009 789.383C734.042 784.554 772.73 772.094 804.287 755.744L803.136 753.524ZM693.71 786.901L693.41 784.419C614.355 793.955 530.537 773.246 487.322 693.069L485.121 694.255L482.92 695.441C527.496 778.142 613.858 799.051 694.009 789.383L693.71 786.901ZM485.121 694.255L487.322 693.069L487.084 692.629L484.884 693.814L482.683 695L482.92 695.441L485.121 694.255ZM484.884 693.814L486.07 696.015L790.724 531.81L789.538 529.609L788.352 527.409L483.697 691.614L484.884 693.814ZM789.538 529.609L790.699 531.823L791.623 531.339L790.462 529.125L789.301 526.911L788.377 527.395L789.538 529.609Z" fill="black"/>
<g filter="url(#filter0_g_161_153)">
<path d="M895.514 629.418C894.299 645.388 888.872 665.159 875.909 690.114C865.212 710.706 841.545 731.502 810.697 748.616C803.259 752.743 795.399 756.656 787.199 760.304C803.277 750.903 818.107 740.534 831.268 729.623C862.37 703.838 884.208 674.985 891.131 648.706C892.912 641.947 894.36 635.524 895.514 629.418Z" fill="#3B921A"/>
</g>
<path d="M179.306 529.125C159.882 519.254 139.884 527.779 123.695 541.024C107.237 554.489 94.5412 572.96 90.0691 582.531C87.2059 588.658 83.4202 595.976 80.8259 605.263L77.9695 601.208C72.9815 594.123 65.3408 591.831 57.3806 592.043C49.4305 592.256 41.0944 594.965 34.5652 597.96L34.0544 598.195L34.3474 598.675L57.4128 636.527L15.2214 627.778L14.2351 627.574L14.6687 628.482L36.0955 673.407L4.04175 662.237L3.2312 661.955L3.3855 662.798C5.59161 674.897 13.0688 689.298 24.1609 703.292C35.2591 717.295 50.0051 730.928 66.7966 741.488C96.5658 760.208 132.851 769.306 166.633 753.525C197.927 769.738 236.326 782.109 276.058 786.902C355.662 796.504 440.752 775.694 484.647 694.254L484.885 693.814L180.23 529.609L179.306 529.125Z" fill="url(#paint3_linear_161_153)"/>
<path d="M179.306 529.125L180.439 526.897L180.452 526.904L180.465 526.91L179.306 529.125ZM123.695 541.024L122.112 539.089L122.112 539.089L123.695 541.024ZM90.0691 582.531L87.8042 581.472L87.8042 581.472L90.0691 582.531ZM80.8259 605.263L83.2337 605.936L81.8161 611.011L78.782 606.703L80.8259 605.263ZM77.9695 601.208L75.9255 602.647L75.9254 602.647L77.9695 601.208ZM57.3806 592.043L57.3138 589.544L57.3139 589.544L57.3806 592.043ZM34.5652 597.96L33.5225 595.688L33.5226 595.688L34.5652 597.96ZM34.0544 598.195L31.92 599.496L30.456 597.095L33.0118 595.923L34.0544 598.195ZM34.3474 598.675L36.4819 597.374L36.4823 597.374L34.3474 598.675ZM57.4128 636.527L59.5477 635.226L62.5447 640.144L56.9052 638.975L57.4128 636.527ZM15.2214 627.778L15.728 625.33L15.729 625.33L15.2214 627.778ZM14.2351 627.574L11.979 628.651L9.80867 624.105L14.7417 625.126L14.2351 627.574ZM14.6687 628.482L16.9248 627.405L16.9252 627.406L14.6687 628.482ZM36.0955 673.407L38.3519 672.331L40.9318 677.74L35.2728 675.768L36.0955 673.407ZM4.04175 662.237L4.86382 659.876L4.86442 659.876L4.04175 662.237ZM3.2312 661.955L0.771983 662.404L-0.000104548 658.182L4.05327 659.594L3.2312 661.955ZM3.3855 662.798L5.84472 662.349L5.84494 662.35L3.3855 662.798ZM24.1609 703.292L22.2017 704.845L22.2017 704.845L24.1609 703.292ZM66.7966 741.488L65.4658 743.604L65.4658 743.604L66.7966 741.488ZM166.633 753.525L165.574 751.26L166.69 750.739L167.783 751.305L166.633 753.525ZM276.058 786.902L275.759 789.384L275.759 789.384L276.058 786.902ZM484.647 694.254L486.848 695.44L486.848 695.441L484.647 694.254ZM484.885 693.814L486.071 691.613L488.271 692.799L487.085 695L484.885 693.814ZM180.23 529.609L181.389 527.394L181.403 527.401L181.416 527.408L180.23 529.609ZM179.306 529.125L178.174 531.354C160.119 522.178 141.236 529.903 125.278 542.959L123.695 541.024L122.112 539.089C138.532 525.656 159.646 516.329 180.439 526.897L179.306 529.125ZM123.695 541.024L125.278 542.959C109.119 556.179 96.6525 574.347 92.334 583.589L90.0691 582.531L87.8042 581.472C92.4299 571.573 105.355 552.799 122.112 539.089L123.695 541.024ZM90.0691 582.531L92.334 583.589C89.4267 589.811 85.7583 596.899 83.2337 605.936L80.8259 605.263L78.4181 604.591C81.0822 595.054 84.985 587.506 87.8042 581.472L90.0691 582.531ZM80.8259 605.263L78.782 606.703L75.9255 602.647L77.9695 601.208L80.0134 599.768L82.8699 603.824L80.8259 605.263ZM77.9695 601.208L75.9254 602.647C71.5798 596.475 64.8946 594.344 57.4474 594.543L57.3806 592.043L57.3139 589.544C65.7871 589.318 74.3832 591.772 80.0136 599.768L77.9695 601.208ZM57.3806 592.043L57.4474 594.543C49.9618 594.743 41.9723 597.312 35.6078 600.233L34.5652 597.96L33.5226 595.688C40.2164 592.617 48.8992 589.769 57.3138 589.544L57.3806 592.043ZM34.5652 597.96L35.6079 600.233L35.0971 600.467L34.0544 598.195L33.0118 595.923L33.5225 595.688L34.5652 597.96ZM34.0544 598.195L36.1889 596.893L36.4819 597.374L34.3474 598.675L32.2129 599.977L31.92 599.496L34.0544 598.195ZM34.3474 598.675L36.4823 597.374L59.5477 635.226L57.4128 636.527L55.278 637.828L32.2126 599.976L34.3474 598.675ZM57.4128 636.527L56.9052 638.975L14.7138 630.226L15.2214 627.778L15.729 625.33L57.9205 634.079L57.4128 636.527ZM15.2214 627.778L14.7148 630.226L13.7285 630.022L14.2351 627.574L14.7417 625.126L15.728 625.33L15.2214 627.778ZM14.2351 627.574L16.4912 626.497L16.9248 627.405L14.6687 628.482L12.4126 629.559L11.979 628.651L14.2351 627.574ZM14.6687 628.482L16.9252 627.406L38.3519 672.331L36.0955 673.407L33.839 674.483L12.4122 629.558L14.6687 628.482ZM36.0955 673.407L35.2728 675.768L3.21908 664.598L4.04175 662.237L4.86442 659.876L36.9181 671.046L36.0955 673.407ZM4.04175 662.237L3.21967 664.598L2.40913 664.316L3.2312 661.955L4.05327 659.594L4.86382 659.876L4.04175 662.237ZM3.2312 661.955L5.69042 661.505L5.84472 662.349L3.3855 662.798L0.92628 663.248L0.771983 662.404L3.2312 661.955ZM3.3855 662.798L5.84494 662.35C7.94972 673.892 15.1655 687.918 26.1201 701.74L24.1609 703.292L22.2017 704.845C10.9721 690.677 3.23349 675.901 0.926054 663.247L3.3855 662.798ZM24.1609 703.292L26.1201 701.74C37.05 715.53 51.586 728.969 68.1275 739.371L66.7966 741.488L65.4658 743.604C48.4241 732.887 33.4682 719.06 22.2017 704.845L24.1609 703.292ZM66.7966 741.488L68.1275 739.371C97.4971 757.841 132.852 766.546 165.574 751.26L166.633 753.525L167.691 755.79C132.851 772.066 95.6346 762.576 65.4658 743.604L66.7966 741.488ZM166.633 753.525L167.783 751.305C198.814 767.382 236.926 779.663 276.358 784.42L276.058 786.902L275.759 789.384C235.726 784.555 197.039 772.094 165.483 755.745L166.633 753.525ZM276.058 786.902L276.358 784.42C355.414 793.956 439.231 773.246 482.447 693.068L484.647 694.254L486.848 695.441C442.273 778.142 355.91 799.052 275.759 789.384L276.058 786.902ZM484.647 694.254L482.446 693.069L482.684 692.628L484.885 693.814L487.085 695L486.848 695.44L484.647 694.254ZM484.885 693.814L483.698 696.015L179.044 531.81L180.23 529.609L181.416 527.408L486.071 691.613L484.885 693.814ZM180.23 529.609L179.071 531.824L178.147 531.341L179.306 529.125L180.465 526.91L181.389 527.394L180.23 529.609Z" fill="black"/>
<g filter="url(#filter1_g_161_153)">
<path d="M74.2538 629.418C75.469 645.388 80.8957 665.159 93.8592 690.114C104.556 710.706 128.223 731.502 159.071 748.616C166.509 752.743 174.369 756.656 182.569 760.304C166.491 750.903 151.661 740.534 138.5 729.623C107.398 703.838 85.5605 674.985 78.637 648.706C76.8562 641.947 75.4076 635.524 74.2538 629.418Z" fill="#3B921A"/>
</g>
<path d="M488.892 2.56445C830.007 9.0458 921.68 513.002 828.811 664.698C753.737 787.327 687.478 781.142 648.119 783.5C612.55 785.631 505.793 771.629 485.561 704.863C465.33 771.629 358.574 785.631 323.005 783.5C283.645 781.142 217.386 787.327 142.312 664.698C49.4436 513.002 141.116 9.0458 482.231 2.56445V2.5C483.344 2.5 484.454 2.50613 485.561 2.5166C486.669 2.50612 487.78 2.5 488.892 2.5V2.56445Z" fill="url(#paint4_radial_161_153)"/>
<path d="M488.892 2.56445H486.392V5.0174L488.845 5.064L488.892 2.56445ZM828.811 664.698L830.944 666.004L830.944 666.004L828.811 664.698ZM648.119 783.5L647.969 781.004L647.969 781.004L648.119 783.5ZM485.561 704.863L487.954 704.138L485.561 696.243L483.169 704.138L485.561 704.863ZM323.005 783.5L323.154 781.004L323.154 781.004L323.005 783.5ZM142.312 664.698L140.18 666.004L140.18 666.004L142.312 664.698ZM482.231 2.56445L482.279 5.064L484.731 5.0174V2.56445H482.231ZM482.231 2.5V0H479.731V2.5H482.231ZM485.561 2.5166L485.538 5.01649L485.561 5.01671L485.585 5.01649L485.561 2.5166ZM488.892 2.5H491.392V0H488.892V2.5ZM488.892 2.56445L488.845 5.064C657.919 8.27649 765.47 134.735 819.251 280.044C846.125 352.653 859.487 429.788 860.348 498.186C861.21 566.663 849.54 626.051 826.679 663.393L828.811 664.698L830.944 666.004C854.517 627.497 866.214 567.005 865.347 498.123C864.479 429.162 851.015 351.46 823.94 278.308C769.824 132.094 660.981 3.33376 488.94 0.0649043L488.892 2.56445ZM828.811 664.698L826.679 663.393C789.323 724.412 754.33 753.111 724.035 766.926C693.691 780.764 667.853 779.813 647.969 781.004L648.119 783.5L648.269 785.996C667.744 784.829 694.716 785.792 726.109 771.475C757.552 757.137 793.225 727.614 830.944 666.004L828.811 664.698ZM648.119 783.5L647.969 781.004C630.503 782.051 595.249 779.125 561.902 767.654C528.471 756.154 497.713 736.343 487.954 704.138L485.561 704.863L483.169 705.588C493.642 740.15 526.378 760.722 560.275 772.382C594.257 784.071 630.166 787.08 648.269 785.996L648.119 783.5ZM485.561 704.863L483.169 704.138C473.41 736.343 442.652 756.154 409.221 767.654C375.874 779.125 340.62 782.051 323.154 781.004L323.005 783.5L322.855 785.996C340.958 787.08 376.867 784.071 410.848 772.382C444.745 760.722 477.481 740.15 487.954 705.588L485.561 704.863ZM323.005 783.5L323.154 781.004C303.271 779.813 277.433 780.764 247.089 766.926C216.794 753.111 181.8 724.412 144.445 663.393L142.312 664.698L140.18 666.004C177.898 727.614 213.571 757.137 245.014 771.475C276.408 785.792 303.38 784.829 322.855 785.996L323.005 783.5ZM142.312 664.698L144.445 663.393C121.584 626.051 109.914 566.663 110.776 498.186C111.637 429.788 124.999 352.653 151.873 280.044C205.654 134.735 313.205 8.27649 482.279 5.064L482.231 2.56445L482.184 0.0649043C310.143 3.33376 201.3 132.094 147.183 278.308C120.108 351.46 106.645 429.162 105.777 498.123C104.909 567.005 116.607 627.497 140.18 666.004L142.312 664.698ZM482.231 2.56445H484.731V2.5H482.231H479.731V2.56445H482.231ZM482.231 2.5V5C483.335 5 484.437 5.00608 485.538 5.01649L485.561 2.5166L485.585 0.0167134C484.471 0.00617864 483.353 0 482.231 0V2.5ZM485.561 2.5166L485.585 5.01649C486.686 5.00607 487.789 5 488.892 5V2.5V0C487.77 0 486.652 0.00617237 485.538 0.0167134L485.561 2.5166ZM488.892 2.5H486.392V2.56445H488.892H491.392V2.5H488.892Z" fill="#17390A"/>
<g filter="url(#filter2_g_161_153)">
<path d="M494.814 689C491.333 682.844 485.76 667.5 483.26 644.5C481.66 754.5 548.093 758.833 565.26 752C536.76 744 502.731 703 494.814 689Z" fill="#3B921A"/>
</g>
<circle cx="303.731" cy="125" r="70.5" fill="#17390A"/>
<path d="M354.333 86.0674C357.21 91.3774 357.979 97.5768 356.487 103.429C354.995 109.281 351.352 114.355 346.284 117.64C341.216 120.924 335.096 122.178 329.145 121.149C323.194 120.121 317.849 116.887 314.177 112.093C310.505 107.298 308.776 101.295 309.334 95.2818C309.892 89.2684 312.697 83.6865 317.188 79.6496C321.68 75.6127 327.529 73.4175 333.567 73.5022C339.606 73.5868 345.391 75.9448 349.768 80.106L333.231 97.4998L354.333 86.0674Z" fill="white"/>
<circle cx="271.074" cy="150.343" r="14.6378" transform="rotate(-28.4473 271.074 150.343)" fill="white"/>
<circle cx="666.731" cy="125" r="70.5" fill="#17390A"/>
<path d="M717.333 86.0674C720.21 91.3774 720.979 97.5768 719.487 103.429C717.995 109.281 714.352 114.355 709.284 117.64C704.216 120.924 698.096 122.178 692.145 121.149C686.194 120.121 680.849 116.887 677.177 112.093C673.505 107.298 671.776 101.295 672.334 95.2818C672.892 89.2684 675.697 83.6865 680.188 79.6496C684.68 75.6127 690.529 73.4175 696.567 73.5022C702.606 73.5868 708.391 75.9448 712.768 80.106L696.231 97.4998L717.333 86.0674Z" fill="white"/>
<circle cx="634.074" cy="150.343" r="14.6378" transform="rotate(-28.4473 634.074 150.343)" fill="white"/>
<g filter="url(#filter3_g_161_153)">
<path d="M649.296 344.245C695.652 344.245 733.231 381.824 733.231 428.181C733.231 474.537 695.652 512.116 649.296 512.116H321.167C274.81 512.116 237.231 474.537 237.231 428.181C237.231 381.824 274.81 344.245 321.167 344.245H649.296ZM359.323 364.102C323.933 364.102 295.243 392.79 295.243 428.181C295.243 463.571 323.933 492.261 359.323 492.261H611.139C646.53 492.261 675.219 463.571 675.219 428.181C675.219 392.79 646.53 364.102 611.139 364.102H359.323Z" fill="#8AC34A"/>
</g>
<g filter="url(#filter4_g_161_153)">
<path d="M626.548 549.121C650.224 549.121 669.418 568.316 669.418 591.992C669.418 615.669 650.224 634.862 626.548 634.862H360.351C336.675 634.862 317.48 615.669 317.48 591.992C317.48 568.316 336.675 549.121 360.351 549.121H626.548ZM391.372 559.263C373.296 559.263 358.644 573.916 358.643 591.991C358.643 610.067 373.296 624.721 391.372 624.721H595.527C613.603 624.721 628.256 610.067 628.256 591.991C628.255 573.916 613.603 559.263 595.527 559.263H391.372Z" fill="#8AC34A"/>
</g>
<g filter="url(#filter5_g_161_153)">
<path d="M626.548 221.5C650.224 221.5 669.418 240.693 669.418 264.37C669.418 288.047 650.224 307.24 626.548 307.24H360.351C336.675 307.24 317.48 288.047 317.48 264.37C317.48 240.693 336.675 221.5 360.351 221.5H626.548ZM391.372 231.642C373.296 231.642 358.643 246.294 358.643 264.37C358.643 282.446 373.296 297.099 391.372 297.099H595.527C613.603 297.099 628.256 282.446 628.256 264.37C628.256 246.294 613.603 231.642 595.527 231.642H391.372Z" fill="#8AC34A"/>
</g>
<defs>
<filter id="filter0_g_161_153" x="785.198" y="627.418" width="112.316" height="134.885" filterUnits="userSpaceOnUse" color-interpolation-filters="sRGB">
<feFlood flood-opacity="0" result="BackgroundImageFix"/>
<feBlend mode="normal" in="SourceGraphic" in2="BackgroundImageFix" result="shape"/>
<feTurbulence type="fractalNoise" baseFrequency="2 2" numOctaves="3" seed="342" />
<feDisplacementMap in="shape" scale="4" xChannelSelector="R" yChannelSelector="G" result="displacedImage" width="100%" height="100%" />
<feMerge result="effect1_texture_161_153">
<feMergeNode in="displacedImage"/>
</feMerge>
</filter>
<filter id="filter1_g_161_153" x="72.2539" y="627.418" width="112.316" height="134.885" filterUnits="userSpaceOnUse" color-interpolation-filters="sRGB">
<feFlood flood-opacity="0" result="BackgroundImageFix"/>
<feBlend mode="normal" in="SourceGraphic" in2="BackgroundImageFix" result="shape"/>
<feTurbulence type="fractalNoise" baseFrequency="2 2" numOctaves="3" seed="342" />
<feDisplacementMap in="shape" scale="4" xChannelSelector="R" yChannelSelector="G" result="displacedImage" width="100%" height="100%" />
<feMerge result="effect1_texture_161_153">
<feMergeNode in="displacedImage"/>
</feMerge>
</filter>
<filter id="filter2_g_161_153" x="481.231" y="642.5" width="86.0288" height="113.555" filterUnits="userSpaceOnUse" color-interpolation-filters="sRGB">
<feFlood flood-opacity="0" result="BackgroundImageFix"/>
<feBlend mode="normal" in="SourceGraphic" in2="BackgroundImageFix" result="shape"/>
<feTurbulence type="fractalNoise" baseFrequency="2 2" numOctaves="3" seed="6186" />
<feDisplacementMap in="shape" scale="4" xChannelSelector="R" yChannelSelector="G" result="displacedImage" width="100%" height="100%" />
<feMerge result="effect1_texture_161_153">
<feMergeNode in="displacedImage"/>
</feMerge>
</filter>
<filter id="filter3_g_161_153" x="227.231" y="334.245" width="516" height="187.871" filterUnits="userSpaceOnUse" color-interpolation-filters="sRGB">
<feFlood flood-opacity="0" result="BackgroundImageFix"/>
<feBlend mode="normal" in="SourceGraphic" in2="BackgroundImageFix" result="shape"/>
<feTurbulence type="fractalNoise" baseFrequency="1 1" numOctaves="3" seed="9648" />
<feDisplacementMap in="shape" scale="20" xChannelSelector="R" yChannelSelector="G" result="displacedImage" width="100%" height="100%" />
<feMerge result="effect1_texture_161_153">
<feMergeNode in="displacedImage"/>
</feMerge>
</filter>
<filter id="filter4_g_161_153" x="307.48" y="539.121" width="371.938" height="105.741" filterUnits="userSpaceOnUse" color-interpolation-filters="sRGB">
<feFlood flood-opacity="0" result="BackgroundImageFix"/>
<feBlend mode="normal" in="SourceGraphic" in2="BackgroundImageFix" result="shape"/>
<feTurbulence type="fractalNoise" baseFrequency="1 1" numOctaves="3" seed="9648" />
<feDisplacementMap in="shape" scale="20" xChannelSelector="R" yChannelSelector="G" result="displacedImage" width="100%" height="100%" />
<feMerge result="effect1_texture_161_153">
<feMergeNode in="displacedImage"/>
</feMerge>
</filter>
<filter id="filter5_g_161_153" x="307.48" y="211.5" width="371.938" height="105.74" filterUnits="userSpaceOnUse" color-interpolation-filters="sRGB">
<feFlood flood-opacity="0" result="BackgroundImageFix"/>
<feBlend mode="normal" in="SourceGraphic" in2="BackgroundImageFix" result="shape"/>
<feTurbulence type="fractalNoise" baseFrequency="1 1" numOctaves="3" seed="9648" />
<feDisplacementMap in="shape" scale="20" xChannelSelector="R" yChannelSelector="G" result="displacedImage" width="100%" height="100%" />
<feMerge result="effect1_texture_161_153">
<feMergeNode in="displacedImage"/>
</feMerge>
</filter>
<linearGradient id="paint0_linear_161_153" x1="78.7312" y1="270.5" x2="167.918" y2="327.767" gradientUnits="userSpaceOnUse">
<stop stop-color="#64B645"/>
<stop offset="1" stop-color="#3B921A"/>
</linearGradient>
<linearGradient id="paint1_linear_161_153" x1="892.438" y1="270.5" x2="803.252" y2="327.767" gradientUnits="userSpaceOnUse">
<stop stop-color="#64B645"/>
<stop offset="1" stop-color="#3B921A"/>
</linearGradient>
<linearGradient id="paint2_linear_161_153" x1="788.731" y1="690.502" x2="985.731" y2="633.002" gradientUnits="userSpaceOnUse">
<stop stop-color="#3B921A"/>
<stop offset="1" stop-color="#64B645"/>
</linearGradient>
<linearGradient id="paint3_linear_161_153" x1="181.037" y1="690.501" x2="-15.9632" y2="633.002" gradientUnits="userSpaceOnUse">
<stop stop-color="#3B921A"/>
<stop offset="1" stop-color="#64B645"/>
</linearGradient>
<radialGradient id="paint4_radial_161_153" cx="0" cy="0" r="1" gradientUnits="userSpaceOnUse" gradientTransform="translate(485.231 311) rotate(90) scale(682.5 659.312)">
<stop stop-color="#64B645"/>
<stop offset="1" stop-color="#3B921A"/>
</radialGradient>
</defs>
</svg>
