<svg width="401" height="203" viewBox="0 0 401 203" fill="none" xmlns="http://www.w3.org/2000/svg">
<circle cx="208" cy="127.407" r="70.5" fill="#230803"/>
<circle cx="208" cy="66.4072" r="35.5" fill="#230803"/>
<path d="M198.5 41.4073C197.667 29.4073 193.3 4.90725 182.5 2.90725C171.7 0.907254 169 6.74059 169 9.90725" stroke="#230803" stroke-width="5" stroke-linecap="round"/>
<circle cx="176.5" cy="12.9072" r="12" fill="#230803"/>
<path d="M217.5 41.4073C218.333 29.4073 222.7 4.90725 233.5 2.90725C244.3 0.907254 247 6.74059 247 9.90725" stroke="#230803" stroke-width="5" stroke-linecap="round"/>
<circle cx="12" cy="12" r="12" transform="matrix(-1 0 0 1 251.5 0.907227)" fill="#230803"/>
<path d="M192.23 75.3785C128.987 114.79 2.5 173.359 2.5 92.348C2.49999 11.3369 128.987 47.2804 192.23 75.3785Z" fill="url(#paint0_linear_163_158)" stroke="#230803" stroke-width="5"/>
<path d="M208.5 75.3785C271.744 114.79 398.23 173.359 398.23 92.348C398.23 11.3369 271.744 47.2804 208.5 75.3785Z" fill="url(#paint1_linear_163_158)" stroke="#230803" stroke-width="5"/>
<g filter="url(#filter0_g_163_158)">
<path d="M141.5 122.436C149.333 114.269 173.7 98.1359 208.5 98.9359L208.5 192.907C200.833 191.74 183.4 192.636 175 179.436C180 175.436 206.5 154.436 205 142.436C203.8 132.836 162.166 125.103 141.5 122.436Z" fill="#8A3CAE"/>
<path d="M275.5 122.436C267.667 114.269 243.3 98.1359 208.5 98.9359L208.5 192.907C216.167 191.74 233.6 192.636 242 179.436C237 175.436 210.5 154.436 212 142.436C213.2 132.836 254.834 125.103 275.5 122.436Z" fill="#8A3CAE"/>
</g>
<defs>
<filter id="filter0_g_163_158" x="131.5" y="88.9072" width="154" height="114" filterUnits="userSpaceOnUse" color-interpolation-filters="sRGB">
<feFlood flood-opacity="0" result="BackgroundImageFix"/>
<feBlend mode="normal" in="SourceGraphic" in2="BackgroundImageFix" result="shape"/>
<feTurbulence type="fractalNoise" baseFrequency="1 1" numOctaves="3" seed="5962" />
<feDisplacementMap in="shape" scale="20" xChannelSelector="R" yChannelSelector="G" result="displacedImage" width="100%" height="100%" />
<feMerge result="effect1_texture_163_158">
<feMergeNode in="displacedImage"/>
</feMerge>
</filter>
<linearGradient id="paint0_linear_163_158" x1="2.5" y1="88.114" x2="192.23" y2="88.114" gradientUnits="userSpaceOnUse">
<stop stop-color="#032321" stop-opacity="0"/>
<stop offset="1" stop-color="#230803"/>
</linearGradient>
<linearGradient id="paint1_linear_163_158" x1="398.23" y1="88.114" x2="208.5" y2="88.114" gradientUnits="userSpaceOnUse">
<stop stop-color="#032321" stop-opacity="0"/>
<stop offset="1" stop-color="#230803"/>
</linearGradient>
</defs>
</svg>
